<svg width="123" height="118" viewBox="0 0 123 118" fill="none" xmlns="http://www.w3.org/2000/svg">
<path fill-rule="evenodd" clip-rule="evenodd" d="M99.1599 29.894C99.2658 28.9109 99.3202 27.9117 99.3202 26.8995C99.3202 12.0865 87.6711 0.078125 73.3011 0.078125C64.6499 0.078125 56.9847 4.43057 52.254 11.1271C50.0084 10.4758 47.6397 10.1274 45.192 10.1274C33.0884 10.1274 22.915 18.6467 20.0071 30.1856C8.6486 33.0654 0.223633 43.6344 0.223633 56.2318C0.223633 71.0449 11.9021 83.212 26.2721 83.212C26.3337 83.212 26.3954 83.2118 26.457 83.2113L26.4568 83.2116H94.1091C94.1582 83.2118 94.2073 83.212 94.2565 83.212C94.3057 83.212 94.3549 83.2118 94.404 83.2116H94.4413L94.4411 83.2113C108.726 83.1076 120.235 70.9814 120.235 56.2318C120.235 43.1613 111.166 32.2745 99.1599 29.894Z" fill="url(#paint0_linear_129_148)"/>
<ellipse cx="59.114" cy="56.5263" rx="22.6816" ry="22.8252" fill="white"/>
<ellipse cx="81.5595" cy="52.336" rx="5.31152" ry="9.4746" transform="rotate(132.889 81.5595 52.336)" fill="white"/>
<ellipse rx="5.31152" ry="9.4746" transform="matrix(-0.595899 -0.80306 0.803065 -0.595891 36.7002 52.7694)" fill="white"/>
<path d="M54.9065 56.6084C54.9065 57.5788 54.7106 58.5397 54.33 59.4363C53.9493 60.3328 53.3914 61.1474 52.6881 61.8336C51.9847 62.5198 51.1497 63.0641 50.2308 63.4355C49.3118 63.8069 48.3269 63.998 47.3322 63.998C46.3375 63.998 45.3526 63.8069 44.4336 63.4355C43.5146 63.0641 42.6796 62.5198 41.9763 61.8336C41.2729 61.1474 40.715 60.3328 40.3344 59.4363C39.9537 58.5397 39.7578 57.5788 39.7578 56.6084H42.0301C42.0301 57.2877 42.1673 57.9603 42.4337 58.5879C42.7002 59.2155 43.0907 59.7857 43.5831 60.2661C44.0754 60.7464 44.6599 61.1274 45.3032 61.3874C45.9464 61.6473 46.6359 61.7811 47.3322 61.7811C48.0285 61.7811 48.7179 61.6473 49.3612 61.3874C50.0045 61.1274 50.589 60.7464 51.0813 60.2661C51.5736 59.7857 51.9642 59.2155 52.2306 58.5879C52.4971 57.9603 52.6342 57.2877 52.6342 56.6084H54.9065Z" fill="#A7C1EE"/>
<path d="M77.8145 56.6084C77.8145 57.5788 77.6186 58.5397 77.2379 59.4363C76.8573 60.3328 76.2994 61.1474 75.596 61.8336C74.8927 62.5198 74.0577 63.0641 73.1387 63.4355C72.2198 63.8069 71.2348 63.998 70.2401 63.998C69.2455 63.998 68.2605 63.8069 67.3416 63.4355C66.4226 63.0641 65.5876 62.5198 64.8843 61.8336C64.1809 61.1474 63.623 60.3328 63.2423 59.4363C62.8617 58.5397 62.6658 57.5788 62.6658 56.6084H64.9381C64.9381 57.2877 65.0752 57.9603 65.3417 58.5879C65.6081 59.2155 65.9987 59.7857 66.491 60.2661C66.9834 60.7464 67.5679 61.1274 68.2111 61.3874C68.8544 61.6473 69.5439 61.7811 70.2401 61.7811C70.9364 61.7811 71.6259 61.6473 72.2691 61.3874C72.9124 61.1274 73.4969 60.7464 73.9893 60.2661C74.4816 59.7857 74.8721 59.2155 75.1386 58.5879C75.405 57.9603 75.5422 57.2877 75.5422 56.6084H77.8145Z" fill="#A7C1EE"/>
<path d="M21.8993 90.1503C21.8993 90.549 21.2399 91.5305 19.9211 93.0946H19.6451C19.4406 93.0128 19.3128 92.7113 19.2617 92.1899C19.1492 91.1369 18.7863 90.2781 18.1729 89.6136C17.5595 88.9389 16.8234 88.6015 15.9647 88.6015C15.1571 88.6015 14.4619 88.898 13.8791 89.4909C13.2964 90.0737 13.0051 90.7739 13.0051 91.5918C13.0051 92.1848 13.1891 92.8237 13.5571 93.5087C13.9251 94.1834 14.881 95.2569 16.4247 96.729C17.9787 98.2012 18.9754 99.3768 19.415 100.256C19.8546 101.125 20.0744 101.953 20.0744 102.74C20.0744 104.56 19.2821 106.165 17.6975 107.555C16.1231 108.936 14.2778 109.626 12.1616 109.626C10.4135 109.626 8.97197 109.222 7.83719 108.414C6.7024 107.596 6.13501 106.932 6.13501 106.421C6.13501 106.134 6.44682 105.47 7.07044 104.427C7.69406 103.384 8.05187 102.863 8.14388 102.863C8.47103 102.863 8.70105 102.96 8.83395 103.154C8.97708 103.338 9.0742 103.686 9.12532 104.197C9.27867 105.792 9.66204 106.891 10.2754 107.494C10.8991 108.097 11.7067 108.399 12.6984 108.399C13.782 108.399 14.7277 108.026 15.5353 107.279C16.343 106.523 16.7468 105.649 16.7468 104.657C16.7468 104.146 16.5883 103.604 16.2714 103.032C15.9647 102.449 15.0804 101.467 13.6184 100.087C12.1667 98.697 11.216 97.5213 10.7662 96.5603C10.3163 95.5993 10.0914 94.6639 10.0914 93.754C10.0914 92.1694 10.6895 90.7126 11.8856 89.3836C13.0817 88.0546 14.6714 87.39 16.6548 87.39C18.1576 87.39 19.4048 87.7376 20.3965 88.4328C21.3984 89.1178 21.8993 89.6903 21.8993 90.1503Z" fill="#E8C5FF"/>
<path d="M31.5718 105.853C30.1815 107.131 28.9598 108.077 27.9068 108.69C26.864 109.293 25.8673 109.595 24.9165 109.595C23.8226 109.595 22.9383 109.171 22.2635 108.322C21.599 107.474 21.2668 106.334 21.2668 104.903C21.2668 102.756 21.7319 100.179 22.6623 97.1737C23.5926 94.1681 24.7222 91.3976 26.0513 88.8622L29.9463 87.4207C30.069 87.3798 30.161 87.3594 30.2224 87.3594C30.5188 87.3594 30.7591 87.5792 30.9431 88.0188C31.1374 88.4482 31.2345 89.0309 31.2345 89.767C31.2345 91.8525 30.754 93.8716 29.793 95.8242C28.832 97.7769 27.3292 99.8624 25.2845 102.081C25.2027 103.144 25.1618 103.875 25.1618 104.274C25.1618 105.163 25.3254 105.869 25.6526 106.39C25.9797 106.911 26.4142 107.172 26.956 107.172C27.5081 107.172 28.0959 106.973 28.7195 106.574C29.3432 106.175 30.2939 105.347 31.5718 104.09V105.853ZM25.6986 99.8573C26.9969 98.4158 28.0499 96.8006 28.8576 95.0115C29.6652 93.2224 30.069 91.6838 30.069 90.3957C30.069 90.0174 30.0128 89.7158 29.9003 89.4909C29.7879 89.2558 29.6448 89.1382 29.471 89.1382C29.0927 89.1382 28.5406 90.0788 27.8148 91.9598C27.0992 93.8409 26.3938 96.4734 25.6986 99.8573Z" fill="#E8C5FF"/>
<path d="M43.0424 105.853C41.744 107.131 40.5785 108.077 39.546 108.69C38.5134 109.293 37.3736 109.595 36.1263 109.595C34.7359 109.595 33.6114 109.15 32.7526 108.261C31.9041 107.371 31.4798 106.201 31.4798 104.749C31.4798 102.582 32.2312 100.624 33.7341 98.8759C35.2369 97.1175 36.9033 96.2383 38.7332 96.2383C39.684 96.2383 40.4456 96.4836 41.0182 96.9744C41.5907 97.4651 41.8769 98.1091 41.8769 98.9066C41.8769 101.023 39.6278 102.74 35.1295 104.059C35.5385 106.053 36.6068 107.049 38.3345 107.049C39.0093 107.049 39.6533 106.87 40.2667 106.513C40.8801 106.145 41.8053 105.337 43.0424 104.09V105.853ZM35.0069 103.016C37.624 102.28 38.9326 100.921 38.9326 98.9372C38.9326 97.9558 38.5748 97.4651 37.8592 97.4651C37.1844 97.4651 36.5404 97.9814 35.927 99.0139C35.3136 100.036 35.0069 101.37 35.0069 103.016Z" fill="#E8C5FF"/>
<path d="M54.5129 105.853C53.2145 107.131 52.0491 108.077 51.0165 108.69C49.984 109.293 48.8441 109.595 47.5968 109.595C46.2065 109.595 45.0819 109.15 44.2231 108.261C43.3746 107.371 42.9503 106.201 42.9503 104.749C42.9503 102.582 43.7018 100.624 45.2046 98.8759C46.7074 97.1175 48.3738 96.2383 50.2038 96.2383C51.1545 96.2383 51.9162 96.4836 52.4887 96.9744C53.0612 97.4651 53.3474 98.1091 53.3474 98.9066C53.3474 101.023 51.0983 102.74 46.6001 104.059C47.009 106.053 48.0773 107.049 49.8051 107.049C50.4798 107.049 51.1239 106.87 51.7373 106.513C52.3507 106.145 53.2759 105.337 54.5129 104.09V105.853ZM46.4774 103.016C49.0945 102.28 50.4031 100.921 50.4031 98.9372C50.4031 97.9558 50.0453 97.4651 49.3297 97.4651C48.6549 97.4651 48.0109 97.9814 47.3975 99.0139C46.7841 100.036 46.4774 101.37 46.4774 103.016Z" fill="#E8C5FF"/>
<path d="M61.843 98.8452C62.579 97.9558 63.2742 97.3015 63.9285 96.8824C64.5828 96.453 65.3087 96.2383 66.1061 96.2383C67.1386 96.2383 67.9769 96.637 68.621 97.4344C69.2753 98.2216 69.6024 99.2593 69.6024 100.547C69.6024 102.807 68.8203 104.882 67.2562 106.773C65.7022 108.654 64.0103 109.595 62.1803 109.595C61.6692 109.595 61.2653 109.539 60.9689 109.426C60.6724 109.314 60.2839 109.053 59.8034 108.644C59.0673 111.885 58.592 114.482 58.3773 116.434L54.4822 117.124C55.2081 112.34 56.1333 107.494 57.2578 102.587C55.9083 104.356 54.9985 105.444 54.5282 105.853H54.1755V104.473C56.1179 102.377 57.7179 99.8318 58.9753 96.8364L62.441 96.2076L61.843 98.8452ZM60.0794 107.049C60.6111 107.929 61.1989 108.368 61.843 108.368C62.8755 108.368 63.7854 107.586 64.5726 106.022C65.37 104.448 65.7687 102.914 65.7687 101.421C65.7687 100.634 65.6051 100 65.278 99.52C64.9611 99.0292 64.547 98.7839 64.0359 98.7839C63.6371 98.7839 63.218 98.9628 62.7784 99.3206C62.3388 99.6784 62.0065 100.098 61.7816 100.578C61.5567 101.048 61.3011 101.876 61.0149 103.062L60.0794 107.049Z" fill="#E8C5FF"/>
<path d="M83.7648 106.858C84.6235 104.67 85.4618 101.486 86.2797 97.3043C86.8522 94.2577 87.5218 92.1517 88.2886 90.9863C89.0553 89.8208 89.955 89.2381 90.9875 89.2381C91.8258 89.2381 92.245 89.7186 92.245 90.6796C92.245 91.2316 92.1376 91.6252 91.923 91.8604C91.7185 92.0853 91.2891 92.2437 90.6348 92.3357C89.9805 92.4278 89.3927 92.7907 88.8713 93.4245C88.3499 94.0584 87.8694 95.367 87.4298 97.3503L86.3104 102.457C85.9117 104.225 85.4618 105.769 84.9609 107.088C84.46 108.407 84.0408 109.383 83.7034 110.017C83.3661 110.651 83.1463 111.003 83.044 111.075C82.9418 111.147 82.6862 111.203 82.2773 111.244L80.6211 111.443C80.2326 111.463 80.018 111.387 79.9771 111.213C79.9464 111.039 79.8953 110.38 79.8237 109.235C79.7624 108.09 79.6908 107.236 79.609 106.674C79.5272 106.101 79.2308 104.553 78.7196 102.027C78.2084 99.5023 77.866 96.9516 77.6922 94.3753C77.6206 94.4162 77.1912 95.8679 76.404 98.7304C75.6271 101.583 75.0903 103.494 74.7939 104.466C74.5076 105.427 74.1038 106.459 73.5824 107.563C73.061 108.657 72.3914 109.577 71.5735 110.324C70.7557 111.07 69.7845 111.443 68.6599 111.443C67.6785 111.443 66.8862 111.136 66.283 110.523C65.69 109.899 65.3936 109.322 65.3936 108.79C65.3936 108.463 65.7514 107.967 66.467 107.303C67.1929 106.628 67.704 106.291 68.0005 106.291C68.3276 106.291 68.5321 106.653 68.6139 107.379C68.6957 108.095 68.8746 108.632 69.1506 108.989C69.4369 109.347 69.7742 109.526 70.1627 109.526C71.686 109.526 73.1837 106.623 74.6558 100.816L75.1159 98.9604C75.9849 95.6072 76.6801 93.1792 77.2014 91.6763L77.6922 90.2349C77.8046 89.9179 77.912 89.7237 78.0142 89.6521C78.1266 89.5806 78.3976 89.5141 78.8269 89.4528L80.4371 89.2381C80.6722 89.1972 80.8511 89.1768 80.9738 89.1768C81.1987 89.1768 81.347 89.233 81.4185 89.3454C81.4901 89.4579 81.5259 89.6726 81.5259 89.9895C81.5259 92.208 81.8633 95.188 82.538 98.9298C83.2229 102.671 83.6319 105.314 83.7648 106.858Z" fill="#E8C5FF"/>
<path d="M102.473 107.701C101.952 108.161 101.446 108.489 100.955 108.683C100.465 108.867 100.076 108.959 99.7898 108.959C99.0537 108.959 98.3227 108.673 97.5969 108.1C96.1247 110.329 94.4379 111.443 92.5364 111.443C91.3505 111.443 90.3895 110.998 89.6534 110.109C88.9173 109.219 88.5493 108.039 88.5493 106.567C88.5493 104.236 89.3774 102.237 91.0335 100.571C92.6897 98.894 94.6679 98.0557 96.9681 98.0557C97.8371 98.0557 98.471 98.1528 98.8697 98.347C99.2786 98.5311 99.5291 98.7509 99.6211 99.0064C99.7131 99.262 99.7591 99.5841 99.7591 99.9725C99.7591 101.884 99.2377 104.231 98.1949 107.011C98.7163 107.492 99.2633 107.732 99.8358 107.732C100.521 107.732 101.4 107.134 102.473 105.938V107.701ZM97.4129 99.1291C97.2595 99.0678 97.0397 99.0371 96.7535 99.0371C95.4244 99.0371 94.3817 99.7323 93.6251 101.123C92.8788 102.513 92.5057 104.139 92.5057 105.999C92.5057 107.032 92.6693 107.834 92.9964 108.407C93.3235 108.979 93.7785 109.265 94.3612 109.265C95.0871 109.265 95.8743 108.596 96.7228 107.257C95.7618 106.05 95.2813 104.752 95.2813 103.362C95.2813 101.726 95.9918 100.315 97.4129 99.1291Z" fill="#E8C5FF"/>
<path d="M111.306 107.701C110.018 108.979 108.904 109.925 107.963 110.538C107.023 111.141 106.128 111.443 105.28 111.443C104.4 111.443 103.685 111.075 103.133 110.339C102.591 109.593 102.32 108.616 102.32 107.41C102.32 106.347 102.576 104.941 103.087 103.193L103.762 100.877L102.581 100.939L103.133 98.0557L104.59 97.9943L105.97 93.6852L110.079 92.8418L108.577 97.703L110.708 97.5803L110.141 100.417L107.764 100.601L106.736 104.036C106.389 105.232 106.215 106.183 106.215 106.889C106.215 107.369 106.333 107.763 106.568 108.069C106.813 108.366 107.125 108.514 107.503 108.514C108.025 108.514 108.541 108.351 109.052 108.023C109.563 107.686 110.315 106.991 111.306 105.938V107.701Z" fill="#E8C5FF"/>
<path d="M122.777 107.701C121.478 108.979 120.313 109.925 119.28 110.538C118.248 111.141 117.108 111.443 115.861 111.443C114.47 111.443 113.346 110.998 112.487 110.109C111.639 109.219 111.214 108.049 111.214 106.597C111.214 104.43 111.966 102.472 113.469 100.724C114.971 98.9655 116.638 98.0863 118.468 98.0863C119.418 98.0863 120.18 98.3317 120.753 98.8224C121.325 99.3131 121.611 99.9572 121.611 100.755C121.611 102.871 119.362 104.588 114.864 105.907C115.273 107.901 116.341 108.897 118.069 108.897C118.744 108.897 119.388 108.719 120.001 108.361C120.615 107.993 121.54 107.185 122.777 105.938V107.701ZM114.741 104.864C117.358 104.128 118.667 102.769 118.667 100.785C118.667 99.8039 118.309 99.3131 117.594 99.3131C116.919 99.3131 116.275 99.8294 115.661 100.862C115.048 101.884 114.741 103.218 114.741 104.864Z" fill="#E8C5FF"/>
<defs>
<linearGradient id="paint0_linear_129_148" x1="60.2294" y1="0.078125" x2="60.2294" y2="83.212" gradientUnits="userSpaceOnUse">
<stop offset="0.442708" stop-color="#B8D1FD"/>
<stop offset="1" stop-color="#E9C5FF"/>
</linearGradient>
</defs>
</svg>
