<svg width="981" height="557" viewBox="0 0 981 557" fill="none" xmlns="http://www.w3.org/2000/svg">
<mask id="mask0_204_91" style="mask-type:alpha" maskUnits="userSpaceOnUse" x="0" y="-29" width="1222" height="586">
<rect width="1221.7" height="586" transform="matrix(1 7.81091e-08 9.7847e-08 -1 0 557)" fill="white"/>
</mask>
<g mask="url(#mask0_204_91)">
<path fill-rule="evenodd" clip-rule="evenodd" d="M479.928 -268.717C430.091 -323.91 355.298 -359 271.681 -359C121.636 -359 5.7804e-05 -246.008 4.41658e-05 -106.625C3.05275e-05 32.7585 121.636 145.751 271.681 145.751C285.541 145.751 299.157 144.787 312.459 142.927C361.413 209.246 443.578 252.751 536.681 252.751C569.372 252.751 600.714 247.387 629.744 237.556C678.915 302.394 760.132 344.751 852 344.751C978.258 344.751 1084.4 264.745 1114.88 156.332C1230.02 127.041 1314.63 29.1479 1314.63 -87.103C1314.63 -226.486 1193 -339.478 1042.95 -339.478C970.399 -339.478 904.49 -313.061 855.763 -270.017C807.035 -313.061 741.126 -339.478 668.575 -339.478C595.297 -339.478 528.795 -312.529 479.928 -268.717Z" fill="url(#paint0_linear_204_91)" fill-opacity="0.8"/>
</g>
<defs>
<linearGradient id="paint0_linear_204_91" x1="689.815" y1="344.751" x2="65.2311" y2="344.849" gradientUnits="userSpaceOnUse">
<stop stop-color="#D0E1FF"/>
<stop offset="0.890625" stop-color="#F0DBFD"/>
</linearGradient>
</defs>
</svg>
