<svg width="1426" height="586" viewBox="0 0 1426 586" fill="none" xmlns="http://www.w3.org/2000/svg">
<mask id="mask0_508_149" style="mask-type:alpha" maskUnits="userSpaceOnUse" x="0" y="0" width="1427" height="586">
<rect x="0.00012207" width="1426" height="586" fill="white"/>
</mask>
<g mask="url(#mask0_508_149)">
<path fill-rule="evenodd" clip-rule="evenodd" d="M1097.48 378.376C1097.48 381.614 1097.4 384.838 1097.26 388.047C1108.1 387.011 1119.12 386.479 1130.28 386.479C1292.89 386.479 1424.71 499.471 1424.71 638.854C1424.71 778.237 1292.89 891.23 1130.28 891.23C1051.65 891.23 980.225 864.812 927.417 821.768C874.61 864.812 803.182 891.23 724.557 891.229C645.143 891.229 573.072 864.28 520.113 820.468C466.104 875.661 385.047 910.751 294.43 910.751C131.821 910.751 0.000172154 797.759 0.000187091 658.376C0.000200379 534.371 104.337 431.255 241.867 410.01C288.748 323.912 390.652 264.249 508.813 264.249C519.199 264.249 529.46 264.71 539.57 265.61C587.881 182.834 687.72 126 803.046 126C965.655 126 1097.48 238.992 1097.48 378.376Z" fill="url(#paint0_linear_508_149)" fill-opacity="0.8"/>
</g>
<defs>
<linearGradient id="paint0_linear_508_149" x1="747.575" y1="126" x2="70.6932" y2="125.896" gradientUnits="userSpaceOnUse">
<stop stop-color="#D0E1FF"/>
<stop offset="0.890625" stop-color="#F0DBFD"/>
</linearGradient>
</defs>
</svg>
