<svg width="672" height="301" viewBox="0 0 672 301" fill="none" xmlns="http://www.w3.org/2000/svg">
<g opacity="0.84">
<mask id="mask0_520_85" style="mask-type:alpha" maskUnits="userSpaceOnUse" x="-69" y="0" width="741" height="301">
<rect width="741" height="300.131" transform="matrix(-1 -8.74228e-08 -1.07161e-07 1 672 0)" fill="white"/>
</mask>
<g mask="url(#mask0_520_85)">
<path fill-rule="evenodd" clip-rule="evenodd" d="M167.467 193.945C167.467 195.605 167.5 197.258 167.564 198.903C162.579 198.371 157.511 198.098 152.377 198.098C77.5733 198.098 16.9331 256.015 16.9331 327.459C16.9331 398.903 77.5733 456.82 152.377 456.82C188.547 456.82 221.405 443.279 245.698 421.215C269.99 443.278 302.848 456.819 339.017 456.819C375.549 456.819 408.703 443.005 433.065 420.549C457.911 448.839 495.198 466.825 536.884 466.825C611.688 466.825 672.328 408.909 672.328 337.465C672.328 273.904 624.331 221.049 561.064 210.16C539.498 166.028 492.62 135.446 438.264 135.446C433.486 135.446 428.765 135.682 424.115 136.144C401.89 93.7155 355.962 64.584 302.911 64.584C228.107 64.5839 167.467 122.501 167.467 193.945Z" fill="url(#paint0_linear_520_85)" fill-opacity="0.8"/>
</g>
</g>
<defs>
<linearGradient id="paint0_linear_520_85" x1="328.428" y1="64.584" x2="639.808" y2="64.5412" gradientUnits="userSpaceOnUse">
<stop stop-color="#D0E1FF"/>
<stop offset="0.890625" stop-color="#F0DBFD"/>
</linearGradient>
</defs>
</svg>
