<svg width="1254" height="528" viewBox="0 0 1254 528" fill="none" xmlns="http://www.w3.org/2000/svg">
<mask id="mask0_508_60" style="mask-type:alpha" maskUnits="userSpaceOnUse" x="-129" y="-1" width="1383" height="529">
<rect x="1254" y="527.629" width="1383" height="527.629" transform="rotate(-180 1254 527.629)" fill="white"/>
</mask>
<g mask="url(#mask0_508_60)">
<path fill-rule="evenodd" clip-rule="evenodd" d="M785.588 -215.839C834.229 -265.534 907.228 -297.129 988.837 -297.128C1135.28 -297.128 1254 -195.391 1254 -69.8919C1254 55.6073 1135.28 157.345 988.837 157.345C975.311 157.345 962.021 156.477 949.039 154.802C901.259 214.515 821.065 253.686 730.196 253.686C698.289 253.686 667.699 248.857 639.366 240.005C591.376 298.384 512.107 336.522 422.443 336.522C299.215 336.522 195.619 264.486 165.87 166.872C53.4949 140.498 -29.0874 52.3563 -29.0874 -52.315C-29.0874 -177.814 89.6299 -279.551 236.075 -279.551C306.885 -279.551 371.213 -255.766 418.771 -217.009C466.33 -255.766 530.657 -279.551 601.467 -279.551C672.987 -279.551 737.893 -255.286 785.588 -215.839Z" fill="url(#paint0_linear_508_60)" fill-opacity="0.8"/>
</g>
<defs>
<linearGradient id="paint0_linear_508_60" x1="-7.48738" y1="332.695" x2="877.247" y2="342.206" gradientUnits="userSpaceOnUse">
<stop stop-color="#F0DBFD"/>
<stop offset="1" stop-color="#D0E1FF"/>
</linearGradient>
</defs>
</svg>
