<svg width="180" height="130" viewBox="0 0 180 130" fill="none" xmlns="http://www.w3.org/2000/svg">
<path d="M18.3082 61.6042L156.344 8.50889C159.299 7.37226 162.472 9.56158 162.459 12.7276L162.024 117.516C162.011 120.651 158.877 122.812 155.942 121.71L18.3412 70.0168C14.4676 68.5615 14.4461 63.0898 18.3082 61.6042Z" fill="white" stroke="#73A1F1" stroke-width="5"/>
<path d="M179.504 107.792C179.504 117.965 168.996 124.742 159.729 120.545L154.172 118.029C153.46 117.707 153.001 116.999 152.998 116.217L152.507 13.1423C152.505 12.7509 152.731 12.3945 153.087 12.23L159.622 9.20436C168.9 4.909 179.504 11.6848 179.504 21.909L179.504 107.792Z" fill="white"/>
<path d="M99.0038 30.5L164.004 5.5" stroke="#73A1F1" stroke-width="5" stroke-linecap="round"/>
<path d="M90.0038 97L163.004 124.5" stroke="#73A1F1" stroke-width="5" stroke-linecap="round"/>
</svg>
