<svg width="181" height="130" viewBox="0 0 181 130" fill="none" xmlns="http://www.w3.org/2000/svg">
<path d="M161.696 68.3958L23.66 121.491C20.7051 122.628 17.5314 120.438 17.5445 117.272L17.9795 12.4842C17.9925 9.34916 21.1272 7.18784 24.062 8.29039L161.663 59.9832C165.536 61.4385 165.558 66.9102 161.696 68.3958Z" fill="white" stroke="#73A1F1" stroke-width="5"/>
<path d="M0.50013 22.2082C0.500144 12.0347 11.0078 5.2582 20.2753 9.45486L25.8313 11.9708C26.5436 12.2934 27.0026 13.0013 27.0063 13.7832L27.4971 116.858C27.499 117.249 27.2724 117.606 26.9172 117.77L20.3817 120.796C11.1036 125.091 0.499994 118.315 0.500008 108.091L0.50013 22.2082Z" fill="white"/>
<path d="M81 99.5L16 124.5" stroke="#73A1F1" stroke-width="5" stroke-linecap="round"/>
<path d="M90 33L17 5.5" stroke="#73A1F1" stroke-width="5" stroke-linecap="round"/>
</svg>
