<svg width="130" height="181" viewBox="0 0 130 181" fill="none" xmlns="http://www.w3.org/2000/svg">
<path d="M61.6062 162.194L8.51083 24.1581C7.3742 21.2031 9.56353 18.0294 12.7295 18.0426L117.518 18.4776C120.653 18.4906 122.814 21.6252 121.712 24.5601L70.0187 162.161C68.5635 166.034 63.0918 166.056 61.6062 162.194Z" fill="white" stroke="#73A1F1" stroke-width="5"/>
<path d="M107.794 0.998176C117.967 0.998191 124.744 11.5058 120.547 20.7733L118.031 26.3294C117.709 27.0416 117.001 27.5006 116.219 27.5043L13.1442 27.9951C12.7529 27.997 12.3964 27.7704 12.232 27.4153L9.20632 20.8797C4.91095 11.6016 11.6867 0.998036 21.9109 0.998051L107.794 0.998176Z" fill="white"/>
<path d="M30.5019 81.498L5.50189 16.498" stroke="#73A1F1" stroke-width="5" stroke-linecap="round"/>
<path d="M97.0019 90.498L124.502 17.498" stroke="#73A1F1" stroke-width="5" stroke-linecap="round"/>
</svg>
