<svg width="147" height="165" viewBox="0 0 147 165" fill="none" xmlns="http://www.w3.org/2000/svg">
<path d="M21 22.5007C26.5 29.0015 18.933 25.5007 17 25.5007C15.067 25.5007 0 9.43305 0 7.50005C0 5.56705 1 3.50012 3.5 4.00005C6 4.49998 15.5 15.9998 21 22.5007Z" fill="#73A1F1"/>
<path d="M139 52L138 4" stroke="#73A1F1" stroke-width="6"/>
<path d="M135.528 148.43L16.2894 21.7402C13.8869 19.1876 15.6966 14.9989 19.202 14.9988L133.976 14.9934C136.13 14.9933 137.898 16.6995 137.974 18.8525L142.438 145.548C142.568 149.237 138.058 151.118 135.528 148.43Z" fill="white" stroke="#73A1F1" stroke-width="6"/>
<path d="M135.5 3.49499L136 46.4949L44.0001 46.4949L3.00005 3.49502L4.5 -1.8062e-06L134 0L135.5 3.49499Z" fill="white"/>
</svg>
